<?xml version="1.0" encoding="UTF-8" standalone="no"?>
<!-- Created with Inkscape (http://www.inkscape.org/) -->

<svg
   xmlns:dc="http://purl.org/dc/elements/1.1/"
   xmlns:cc="http://creativecommons.org/ns#"
   xmlns:rdf="http://www.w3.org/1999/02/22-rdf-syntax-ns#"
   xmlns:svg="http://www.w3.org/2000/svg"
   xmlns="http://www.w3.org/2000/svg"
   xmlns:sodipodi="http://sodipodi.sourceforge.net/DTD/sodipodi-0.dtd"
   xmlns:inkscape="http://www.inkscape.org/namespaces/inkscape"
   width="60"
   height="35"
   viewBox="0 0 60.000001 35.000001"
   id="svg5121"
   version="1.1"
   inkscape:version="0.91 r13725"
   sodipodi:docname="about_icon.svg">
  <defs
     id="defs5123" />
  <sodipodi:namedview
     id="base"
     pagecolor="#ffffff"
     bordercolor="#666666"
     borderopacity="1.0"
     inkscape:pageopacity="0.0"
     inkscape:pageshadow="2"
     inkscape:zoom="11.2"
     inkscape:cx="38.263372"
     inkscape:cy="24.175702"
     inkscape:document-units="px"
     inkscape:current-layer="layer1"
     showgrid="false"
     units="px"
     inkscape:window-width="1366"
     inkscape:window-height="746"
     inkscape:window-x="-8"
     inkscape:window-y="-8"
     inkscape:window-maximized="1"
     showguides="true"
     inkscape:guide-bbox="true" />
  <metadata
     id="metadata5126">
    <rdf:RDF>
      <cc:Work
         rdf:about="">
        <dc:format>image/svg+xml</dc:format>
        <dc:type
           rdf:resource="http://purl.org/dc/dcmitype/StillImage" />
        <dc:title />
      </cc:Work>
    </rdf:RDF>
  </metadata>
  <g
     inkscape:label="Livello 1"
     inkscape:groupmode="layer"
     id="layer1"
     transform="translate(0,-1017.3621)">
    <g
       style="display:inline;opacity:1;fill:#51e6a6;fill-opacity:1"
       id="g5511"
       transform="matrix(0.07780865,0,0,0.07780865,64.043873,1466.8831)"
       inkscape:export-xdpi="90"
       inkscape:export-ydpi="90">
      <path
         sodipodi:nodetypes="sscccsssssszsssssscccssssssssssssssssssssssssssss"
         inkscape:connector-curvature="0"
         id="rect5219"
         d="m -559.89459,-5703.377 c -8.19451,0.058 -16.27446,0.5162 -22.74881,1.3059 -14.87033,1.8138 -50.1971,10.1742 -63.15797,11.4635 -8.72871,0.8684 -23.1464,1.3222 -44.3492,-1.0327 -5.55001,-0.6167 -3.47317,21.6034 -1.45843,23.1022 17.06236,12.695 21.21302,17.0265 21.39637,27.9111 0.62963,37.3773 1.55842,66.2496 10.61709,88.1812 10.9784,26.5795 34.69575,58.3799 84.1544,62.9218 12.90351,1.185 25.8813,1.185 38.71137,0 49.45599,-4.5676 75.88709,-37.718 89.65248,-90.0797 4.33421,-16.4868 3.5017,-41.3405 4.46781,-47.4278 0.96848,-6.1023 14.04046,-9.3899 20.15707,-9.3899 6.1166,0 19.21421,2.9308 19.56965,9.3899 0.33535,6.094 0.72262,30.941 5.05683,47.4278 13.7654,52.3617 40.1965,85.5121 89.65248,90.0797 12.83006,1.185 25.80626,1.185 38.70976,0 49.4586,-4.5419 73.176,-36.3423 84.1544,-62.9218 9.0586,-21.9316 9.9891,-50.8039 10.6187,-88.1812 0.1833,-10.8846 4.334,-15.2161 21.3964,-27.9111 2.0147,-1.4988 4.0915,-23.7189 -1.4585,-23.1022 -21.2027,2.3549 -35.6205,1.9011 -44.3492,1.0327 -12.9609,-1.2893 -48.2876,-9.6497 -63.1579,-11.4635 -12.9487,-1.5795 -32.3199,-1.8319 -46.18511,-0.2072 -15.74503,1.8448 -36.91683,8.0158 -53.23638,14.0078 -11.76917,4.3212 -22.10153,6.8885 -34.69125,9.1189 -18.94044,3.3555 -36.0292,2.9207 -53.33298,-0.1468 -14.49847,-2.5703 -21.74726,-4.6509 -33.51642,-8.9721 -16.31955,-5.992 -37.49136,-12.163 -53.23638,-14.0078 -6.93261,-0.8123 -15.24176,-1.1561 -23.43628,-1.0987 z m 3.773,39.6237 c 12.44815,0.029 24.90918,0.7851 38.09941,2.2519 30.03339,3.3398 56.83923,28.5498 54.72373,58.9658 -0.84709,12.1792 -1.93839,20.1851 -4.15367,29.0323 -8.27009,33.0283 -28.29437,56.5645 -61.16144,64.8059 -14.64151,3.6714 -39.14374,3.6714 -54.93896,0 -33.00477,-7.6714 -53.51776,-34.6359 -59.50061,-53.5897 -3.97113,-12.5806 -6.82899,-30.3423 -7.47694,-45.2342 -1.45977,-33.5501 22.50072,-50.408 56.38617,-54.123 13.1398,-1.4406 25.57416,-2.138 38.02231,-2.109 z m 267.3399,0 c 12.4482,-0.029 24.8826,0.6684 38.0223,2.109 33.8855,3.715 57.8444,20.5729 56.3846,54.123 -0.6479,14.8919 -3.5042,32.6536 -7.4753,45.2342 -5.9828,18.9538 -26.4958,45.9183 -59.5006,53.5897 -15.7952,3.6714 -40.2975,3.6714 -54.93896,0 -32.86708,-8.2414 -52.89135,-31.7776 -61.16145,-64.8059 -2.21528,-8.8472 -3.30658,-16.8531 -4.15367,-29.0323 -2.11549,-30.416 24.69034,-55.626 54.72373,-58.9658 13.19024,-1.4668 25.65125,-2.2228 38.09935,-2.2519 z"
         style="opacity:1;fill:#51e6a6;fill-opacity:1;stroke:none;stroke-width:4;stroke-linecap:square;stroke-miterlimit:4;stroke-dasharray:none;stroke-dashoffset:0;stroke-opacity:1" />
      <path
         transform="scale(-1,1)"
         style="fill:#51e6a6;fill-opacity:1;stroke:none"
         d="m 462.00385,-5419.6108 a 8.4163847,8.431756 0 0 1 -8.41639,8.4317 8.4163847,8.431756 0 0 1 -8.41638,-8.4317 8.4163847,8.431756 0 0 1 8.41638,-8.4318 8.4163847,8.431756 0 0 1 8.41639,8.4318 z"
         id="circle4392" />
    </g>
  </g>
</svg>
