<?xml version="1.0" encoding="UTF-8" standalone="no"?>
<!-- Created with Inkscape (http://www.inkscape.org/) -->

<svg
   xmlns:dc="http://purl.org/dc/elements/1.1/"
   xmlns:cc="http://creativecommons.org/ns#"
   xmlns:rdf="http://www.w3.org/1999/02/22-rdf-syntax-ns#"
   xmlns:svg="http://www.w3.org/2000/svg"
   xmlns="http://www.w3.org/2000/svg"
   xmlns:sodipodi="http://sodipodi.sourceforge.net/DTD/sodipodi-0.dtd"
   xmlns:inkscape="http://www.inkscape.org/namespaces/inkscape"
   width="469"
   height="469"
   viewBox="0 0 469 469.00001"
   id="svg5681"
   version="1.1"
   inkscape:version="0.91 r13725"
   sodipodi:docname="virus.svg">
  <defs
     id="defs5683">
    <inkscape:path-effect
       effect="spiro"
       id="path-effect4291"
       is_visible="true" />
    <inkscape:path-effect
       effect="spiro"
       id="path-effect4295"
       is_visible="true" />
    <inkscape:path-effect
       effect="spiro"
       id="path-effect4299"
       is_visible="true" />
    <inkscape:path-effect
       effect="spiro"
       id="path-effect4303"
       is_visible="true" />
    <inkscape:path-effect
       effect="spiro"
       id="path-effect4307"
       is_visible="true" />
    <inkscape:path-effect
       effect="spiro"
       id="path-effect4311"
       is_visible="true" />
    <inkscape:path-effect
       effect="spiro"
       id="path-effect4315"
       is_visible="true" />
    <inkscape:path-effect
       effect="spiro"
       id="path-effect4319"
       is_visible="true" />
    <inkscape:path-effect
       effect="spiro"
       id="path-effect4323"
       is_visible="true" />
    <inkscape:path-effect
       effect="spiro"
       id="path-effect4327"
       is_visible="true" />
    <inkscape:path-effect
       effect="spiro"
       id="path-effect4331"
       is_visible="true" />
    <inkscape:path-effect
       effect="spiro"
       id="path-effect4335"
       is_visible="true" />
    <inkscape:path-effect
       effect="spiro"
       id="path-effect4339"
       is_visible="true" />
    <inkscape:path-effect
       effect="spiro"
       id="path-effect4343"
       is_visible="true" />
    <inkscape:path-effect
       effect="spiro"
       id="path-effect4347"
       is_visible="true" />
    <inkscape:path-effect
       effect="spiro"
       id="path-effect4351"
       is_visible="true" />
    <inkscape:path-effect
       effect="spiro"
       id="path-effect4355"
       is_visible="true" />
    <inkscape:path-effect
       effect="spiro"
       id="path-effect4359"
       is_visible="true" />
    <inkscape:path-effect
       effect="spiro"
       id="path-effect4363"
       is_visible="true" />
    <inkscape:path-effect
       effect="spiro"
       id="path-effect4367"
       is_visible="true" />
    <inkscape:path-effect
       effect="spiro"
       id="path-effect4371"
       is_visible="true" />
    <inkscape:path-effect
       effect="spiro"
       id="path-effect4375"
       is_visible="true" />
    <inkscape:path-effect
       effect="spiro"
       id="path-effect4379"
       is_visible="true" />
    <inkscape:path-effect
       effect="spiro"
       id="path-effect4383"
       is_visible="true" />
    <inkscape:path-effect
       effect="spiro"
       id="path-effect4387"
       is_visible="true" />
    <inkscape:path-effect
       effect="spiro"
       id="path-effect4391"
       is_visible="true" />
    <inkscape:path-effect
       effect="spiro"
       id="path-effect4395"
       is_visible="true" />
    <inkscape:path-effect
       effect="spiro"
       id="path-effect4399"
       is_visible="true" />
    <inkscape:path-effect
       effect="spiro"
       id="path-effect4403"
       is_visible="true" />
    <inkscape:path-effect
       effect="spiro"
       id="path-effect4407"
       is_visible="true" />
    <inkscape:path-effect
       effect="spiro"
       id="path-effect4411"
       is_visible="true" />
    <inkscape:path-effect
       effect="spiro"
       id="path-effect4481"
       is_visible="true" />
    <inkscape:path-effect
       effect="spiro"
       id="path-effect4489"
       is_visible="true" />
    <inkscape:path-effect
       effect="spiro"
       id="path-effect4493"
       is_visible="true" />
    <inkscape:path-effect
       effect="spiro"
       id="path-effect4477"
       is_visible="true" />
    <inkscape:path-effect
       effect="spiro"
       id="path-effect4469"
       is_visible="true" />
    <inkscape:path-effect
       effect="spiro"
       id="path-effect4473"
       is_visible="true" />
    <inkscape:path-effect
       effect="spiro"
       id="path-effect4461"
       is_visible="true" />
    <inkscape:path-effect
       effect="spiro"
       id="path-effect4465"
       is_visible="true" />
    <inkscape:path-effect
       effect="spiro"
       id="path-effect4453"
       is_visible="true" />
    <inkscape:path-effect
       effect="spiro"
       id="path-effect4457"
       is_visible="true" />
    <inkscape:path-effect
       effect="spiro"
       id="path-effect4431"
       is_visible="true" />
    <inkscape:path-effect
       is_visible="true"
       id="path-effect4437"
       effect="spiro" />
    <inkscape:path-effect
       effect="spiro"
       id="path-effect4441"
       is_visible="true" />
    <inkscape:path-effect
       is_visible="true"
       id="path-effect4449"
       effect="spiro" />
  </defs>
  <sodipodi:namedview
     id="base"
     pagecolor="#ffffff"
     bordercolor="#666666"
     borderopacity="1.0"
     inkscape:pageopacity="0.0"
     inkscape:pageshadow="2"
     inkscape:zoom="5.6568543"
     inkscape:cx="244.22498"
     inkscape:cy="188.77301"
     inkscape:document-units="px"
     inkscape:current-layer="layer1"
     showgrid="false"
     units="px"
     inkscape:snap-global="true"
     inkscape:snap-bbox="true"
     inkscape:snap-bbox-midpoints="true"
     inkscape:window-width="1366"
     inkscape:window-height="746"
     inkscape:window-x="-8"
     inkscape:window-y="-8"
     inkscape:window-maximized="1"
     inkscape:object-nodes="true" />
  <metadata
     id="metadata5686">
    <rdf:RDF>
      <cc:Work
         rdf:about="">
        <dc:format>image/svg+xml</dc:format>
        <dc:type
           rdf:resource="http://purl.org/dc/dcmitype/StillImage" />
        <dc:title />
      </cc:Work>
    </rdf:RDF>
  </metadata>
  <g
     inkscape:label="Livello 1"
     inkscape:groupmode="layer"
     id="layer1"
     transform="translate(0,-583.36216)">
    <path
       style="color:#000000;font-style:normal;font-variant:normal;font-weight:normal;font-stretch:normal;font-size:medium;line-height:normal;font-family:sans-serif;text-indent:0;text-align:start;text-decoration:none;text-decoration-line:none;text-decoration-style:solid;text-decoration-color:#000000;letter-spacing:normal;word-spacing:normal;text-transform:none;direction:ltr;block-progression:tb;writing-mode:lr-tb;baseline-shift:baseline;text-anchor:start;white-space:normal;clip-rule:nonzero;display:inline;overflow:visible;visibility:visible;opacity:1;isolation:auto;mix-blend-mode:normal;color-interpolation:sRGB;color-interpolation-filters:linearRGB;solid-color:#000000;solid-opacity:1;fill:#f78a08;fill-opacity:1;fill-rule:nonzero;stroke:none;stroke-width:0.99999994;stroke-linecap:round;stroke-linejoin:round;stroke-miterlimit:4;stroke-dasharray:none;stroke-dashoffset:23.40109444;stroke-opacity:1;color-rendering:auto;image-rendering:auto;shape-rendering:auto;text-rendering:auto;enable-background:accumulate"
       d="m 207.54387,160.16794 0.0285,36.26705 c -7.8e-4,0.006 25.10977,9.2405 25.10977,9.2405 -0.009,0.0384 -0.007,3.9922 -0.007,3.9922 l -1.91016,0 c -0.27613,3e-5 -0.49997,0.22387 -0.5,0.5 l 0,87.77929 c 3e-5,0.27613 0.22387,0.49997 0.5,0.5 l 1.91016,0 0,2.67774 -2.6914,0 -2.9336,-49.29297 c -0.0154,-0.26238 -0.23132,-0.46805 -0.49414,-0.4707 -0.2582,-0.002 -0.47571,0.19234 -0.50195,0.44921 l -2.44727,23.38086 -8.21094,-33.8164 c -0.0525,-0.21841 -0.24425,-0.37499 -0.46875,-0.38282 -0.0169,-8.6e-4 -0.0339,-8.6e-4 -0.0508,0 -0.20223,0.0143 -0.3758,0.14932 -0.43945,0.3418 l -8.95117,26.875 -8.18164,-13.93555 c -0.0952,-0.16217 -0.27325,-0.25724 -0.46094,-0.24609 -0.18054,0.0109 -0.34111,0.11846 -0.41992,0.28125 l -28.27149,58.3457 c -0.32852,0.61126 0.61982,1.07306 0.89844,0.4375 l 27.86524,-57.5039 8.15039,13.88281 -12.79688,38.42187 c -0.22436,0.64013 0.74702,0.96193 0.94922,0.31446 l 12.51953,-37.5918 15.57422,26.52539 -2.80273,26.77344 c -0.0949,0.6834 0.94621,0.7918 0.99414,0.10351 l 2.66015,-25.42578 1.89258,3.22461 c 0.11647,0.20794 0.19706,0.30918 0.49814,0.30918 l 4.8164,0 10.25586,0 4.84766,0 c 0.28261,0 0.36583,-0.13088 0.4707,-0.31251 l 1.96485,-3.34766 2.58398,25.55078 c 0.0664,0.66406 1.0625,0.56445 0.99609,-0.0996 l -2.72265,-26.91211 15.49414,-26.38867 12.51953,37.5918 c 0.2022,0.64747 1.17358,0.32567 0.94922,-0.31446 l -12.79688,-38.42187 8.15039,-13.88281 27.86524,57.5039 c 0.27862,0.63556 1.22696,0.17376 0.89844,-0.4375 l -28.27149,-58.3457 c -0.0815,-0.16955 -0.25135,-0.27899 -0.43945,-0.2832 -0.18122,-0.003 -0.3501,0.0915 -0.44141,0.24804 l -8.18164,13.93555 -8.95117,-26.875 c -0.0709,-0.21339 -0.27544,-0.35324 -0.5,-0.3418 -0.22081,0.0121 -0.40747,0.16776 -0.45898,0.38282 l -8.08985,33.31836 -2.31445,-22.88282 c -0.0275,-0.26068 -0.25169,-0.45585 -0.51367,-0.44726 -0.25763,0.008 -0.46735,0.20961 -0.48438,0.46679 l -3.18359,49.29493 -2.69336,0 0,-2.67774 1.91016,0 c 0.27613,-3e-5 0.49997,-0.22387 0.5,-0.5 l 0,-87.77929 c -3e-5,-0.27613 -0.22387,-0.49997 -0.5,-0.5 l -1.91016,0 -0.007,-3.9922 c 8e-5,-0.0395 25.09178,-9.2705 25.09178,-9.2705 l 0.0458,-36.23652 c -3.7e-4,-0.01 -26.9631,-15.56226 -26.9631,-15.56226 z m 26.95611,-14.46286 18.25586,16.5332 -36.51172,0 z m -3.81445,2.10547 -15.85743,14.36133 -5.70898,-1.9043 z m 7.6289,0 21.56641,12.45703 -5.70898,1.9043 z m -29.90625,13.27343 5.95703,1.98829 -5.95703,28.32812 z m 52.1836,0 0,30.31641 -5.95703,-28.32812 z m -44.82813,2.1543 37.47071,0 L 234.5,199.68164 Z m -0.61719,0.98047 18.45118,35.89648 -25.09571,-4.30664 z m 38.70704,0 6.64453,31.58984 -25.09571,4.30664 z m -40.37305,33.45703 20.51953,3.52344 0,3.82422 z m 42.03906,0 -20.51953,7.34766 0,-3.82422 z m -21.84375,8.55664 1.64844,0 0,3.4336 -1.64844,0 z m -2.41016,4.4336 6.46876,0 0,1.74414 -6.46876,0 z m 0,2.74414 6.46876,0 0,1.74218 -6.46876,0 z m 0,2.74218 6.46876,0 0,1.74219 -6.46876,0 z m 0,2.74219 6.46876,0 0,1.74414 -6.46876,0 z m 0,2.74414 6.46876,0 0,1.74219 -6.46876,0 z m 0,2.74219 6.46876,0 0,1.74414 -6.46876,0 z m 0,2.74414 6.46876,0 0,1.74219 -6.46876,0 z m 0,2.74219 6.46876,0 0,1.74414 -6.46876,0 z m 0,2.74414 6.46876,0 0,1.74219 -6.46876,0 z m 0,2.74219 6.46876,0 0,1.74414 -6.46876,0 z m 0,2.74414 6.46876,0 0,1.74218 -6.46876,0 z m 0,2.74218 6.46876,0 0,1.74414 -6.46876,0 z m -16.42968,2.45704 8.46289,34.85156 -1.8125,17.3125 -15.32813,-26.10938 z m 39.32812,0 8.67774,26.05468 -15.24414,25.96485 -1.78321,-17.63672 z m -22.89844,0.2871 6.46876,0 0,1.74219 -6.46876,0 z m 0,2.74219 6.46876,0 0,1.74414 -6.46876,0 z m 0,2.74414 6.46876,0 0,1.74219 -6.46876,0 z m 0,2.74219 6.46876,0 0,1.74219 -6.46876,0 z m 0,2.74219 6.46876,0 0,1.74414 -6.46876,0 z m 0,2.74414 6.46876,0 0,1.74219 -6.46876,0 z m 11.54493,0.61719 1.99218,19.70117 -4.44726,18.3125 z m -16.39649,0.0566 2.26758,38.11523 -4.37109,-18.00586 z m 4.85156,2.06836 6.46876,0 0,1.74414 -6.46876,0 z m 0,2.74414 6.46876,0 0,1.74218 -6.46876,0 z m 0,2.74218 6.46876,0 0,1.74414 -6.46876,0 z m 0,2.74414 6.46876,0 0,1.74219 -6.46876,0 z m 0,2.74219 6.46876,0 0,1.74414 -6.46876,0 z m 0,2.74414 6.46876,0 0,1.74219 -6.46876,0 z m 0,2.74219 6.46876,0 0,1.74414 -6.46876,0 z m 0,2.74414 6.46876,0 0,1.74219 -6.46876,0 z m 13.83985,1.36133 1.63476,16.17187 -2.55078,4.34571 -4.0664,0 z M 224,281.03906 l 4.87695,20.08399 -4.0664,0 -2.47071,-4.21094 z m 7.26562,0.94727 6.46876,0 0,1.74414 -6.46876,0 z m 0,2.74414 6.46876,0 0,1.74219 -6.46876,0 z m 0,2.74219 6.46876,0 0,1.74414 -6.46876,0 z m 0,2.74414 6.46876,0 0,1.74218 -6.46876,0 z m 0,2.74218 6.46876,0 0,1.74219 -6.46876,0 z m 0,2.74219 6.46876,0 0,1.74414 -6.4688,0 z m 2.41016,2.74414 1.64844,0 0,2.67774 -1.64844,0 z"
       transform="translate(0,583.36216)"
       id="path13639"
       inkscape:connector-curvature="0"
       sodipodi:nodetypes="ccccccccccccccccccccccccccccccccccccccccccccccccccccccccccccccccccccccccccccccccccccccccccccccccccccccccccccccccccccccccccccccccccccccccccccccccccccccccccccccccccccccccccccccccccccccccccccccccccccccccccccccccccccccccccccccccccccccccccccccccccccccccccccccccccccccccccccccccccccccccccccccccccccccccccccccccccccccccc" />
  </g>
</svg>
