<?xml version="1.0" encoding="UTF-8" standalone="no"?>
<!-- Created with Inkscape (http://www.inkscape.org/) -->

<svg
   xmlns:dc="http://purl.org/dc/elements/1.1/"
   xmlns:cc="http://creativecommons.org/ns#"
   xmlns:rdf="http://www.w3.org/1999/02/22-rdf-syntax-ns#"
   xmlns:svg="http://www.w3.org/2000/svg"
   xmlns="http://www.w3.org/2000/svg"
   xmlns:sodipodi="http://sodipodi.sourceforge.net/DTD/sodipodi-0.dtd"
   xmlns:inkscape="http://www.inkscape.org/namespaces/inkscape"
   width="469"
   height="469"
   viewBox="0 0 469 469.00001"
   id="svg5681"
   version="1.1"
   inkscape:version="0.91 r13725"
   sodipodi:docname="calc.svg">
  <defs
     id="defs5683" />
  <sodipodi:namedview
     id="base"
     pagecolor="#ffffff"
     bordercolor="#666666"
     borderopacity="1.0"
     inkscape:pageopacity="0.0"
     inkscape:pageshadow="2"
     inkscape:zoom="1.979899"
     inkscape:cx="300"
     inkscape:cy="251.02247"
     inkscape:document-units="px"
     inkscape:current-layer="layer1"
     showgrid="false"
     units="px"
     inkscape:snap-global="true"
     inkscape:snap-bbox="true"
     inkscape:snap-bbox-midpoints="true"
     inkscape:window-width="1366"
     inkscape:window-height="746"
     inkscape:window-x="-8"
     inkscape:window-y="-8"
     inkscape:window-maximized="1" />
  <metadata
     id="metadata5686">
    <rdf:RDF>
      <cc:Work
         rdf:about="">
        <dc:format>image/svg+xml</dc:format>
        <dc:type
           rdf:resource="http://purl.org/dc/dcmitype/StillImage" />
        <dc:title />
      </cc:Work>
    </rdf:RDF>
  </metadata>
  <g
     inkscape:label="Livello 1"
     inkscape:groupmode="layer"
     id="layer1"
     transform="translate(0,-583.36216)">
    <path
       id="rect5503"
       style="color:#000000;font-style:normal;font-variant:normal;font-weight:normal;font-stretch:normal;font-size:medium;line-height:normal;font-family:sans-serif;text-indent:0;text-align:start;text-decoration:none;text-decoration-line:none;text-decoration-style:solid;text-decoration-color:#000000;letter-spacing:normal;word-spacing:normal;text-transform:none;direction:ltr;block-progression:tb;writing-mode:lr-tb;baseline-shift:baseline;text-anchor:start;white-space:normal;clip-rule:nonzero;display:inline;overflow:visible;visibility:visible;opacity:1;isolation:auto;mix-blend-mode:normal;color-interpolation:sRGB;color-interpolation-filters:linearRGB;solid-color:#000000;solid-opacity:1;fill:#bdf0ca;fill-opacity:1;fill-rule:nonzero;stroke:none;stroke-width:2;stroke-linecap:butt;stroke-linejoin:miter;stroke-miterlimit:4;stroke-dasharray:none;stroke-dashoffset:0;stroke-opacity:1;color-rendering:auto;image-rendering:auto;shape-rendering:auto;text-rendering:auto;enable-background:accumulate"
       d="m 261.9668,860.03711 c -0.88795,0 -1.63477,0.74682 -1.63477,1.63477 l 0,10.46093 c 0,0.88795 0.74682,1.63282 1.63477,1.63281 l 15.58008,0 c 0.88794,10e-6 1.63476,-0.74486 1.63476,-1.63281 l 0,-10.46093 c 0,-0.88795 -0.74682,-1.63477 -1.63476,-1.63477 l -15.58008,0 z m 0.36523,2 14.84961,0 0,9.72851 -14.84961,0 0,-9.72851 z m -24.05078,-2 c -0.88794,0 -1.63477,0.74682 -1.63477,1.63477 l 0,10.46093 c 0,0.88795 0.74683,1.63282 1.63477,1.63281 l 15.58008,0 c 0.88794,10e-6 1.63476,-0.74486 1.63476,-1.63281 l 0,-10.46093 c 0,-0.88795 -0.74682,-1.63477 -1.63476,-1.63477 l -15.58008,0 z m 0.36523,2 14.84961,0 0,9.72851 -14.84961,0 0,-9.72851 z m -24.05273,-2 c -0.88794,0 -1.63281,0.74682 -1.63281,1.63477 l 0,10.46093 c 0,0.88795 0.74487,1.63282 1.63281,1.63281 l 15.58203,0 c 0.88795,10e-6 1.63281,-0.74486 1.63281,-1.63281 l 0,-10.46093 c 0,-0.88795 -0.74486,-1.63477 -1.63281,-1.63477 l -15.58203,0 z m 0.36719,2 14.84765,0 0,9.72851 -14.84765,0 0,-9.72851 z m -24.05469,-2 c -0.88794,0 -1.63281,0.74682 -1.63281,1.63477 l 0,10.46093 c 0,0.88795 0.74487,1.63282 1.63281,1.63281 l 15.58203,0 c 0.88795,10e-6 1.63281,-0.74486 1.63281,-1.63281 l 0,-10.46093 c 0,-0.88795 -0.74486,-1.63477 -1.63281,-1.63477 l -15.58203,0 z m 0.36719,2 14.84765,0 0,9.72851 -14.84765,0 0,-9.72851 z m 70.69336,-19.45508 c -0.88795,0 -1.63477,0.74487 -1.63477,1.63281 l 0,10.46289 c 0,0.88795 0.74682,1.63282 1.63477,1.63282 l 15.58008,0 c 0.88794,0 1.63476,-0.74487 1.63476,-1.63282 l 0,-10.46289 c 0,-0.88794 -0.74682,-1.63281 -1.63476,-1.63281 l -15.58008,0 z m 0.36523,2 14.84961,0 0,9.72852 -14.84961,0 0,-9.72852 z m -24.05078,-2 c -0.88794,0 -1.63477,0.74487 -1.63477,1.63281 l 0,10.46289 c 0,0.88795 0.74683,1.63282 1.63477,1.63282 l 15.58008,0 c 0.88794,0 1.63476,-0.74487 1.63476,-1.63282 l 0,-10.46289 c 0,-0.88794 -0.74682,-1.63281 -1.63476,-1.63281 l -15.58008,0 z m 0.36523,2 14.84961,0 0,9.72852 -14.84961,0 0,-9.72852 z m -24.05273,-2 c -0.88794,0 -1.63281,0.74487 -1.63281,1.63281 l 0,10.46289 c 0,0.88795 0.74487,1.63282 1.63281,1.63282 l 15.58203,0 c 0.88795,0 1.63281,-0.74487 1.63281,-1.63282 l 0,-10.46289 c 0,-0.88794 -0.74486,-1.63281 -1.63281,-1.63281 l -15.58203,0 z m 0.36719,2 14.84765,0 0,9.72852 -14.84765,0 0,-9.72852 z m -24.05469,-2 c -0.88794,0 -1.63281,0.74487 -1.63281,1.63281 l 0,10.46289 c 0,0.88795 0.74487,1.63282 1.63281,1.63282 l 15.58203,0 c 0.88795,0 1.63281,-0.74487 1.63281,-1.63282 l 0,-10.46289 c 0,-0.88794 -0.74486,-1.63281 -1.63281,-1.63281 l -15.58203,0 z m 0.36719,2 14.84765,0 0,9.72852 -14.84765,0 0,-9.72852 z m 70.69336,-18.84375 c -0.88795,0 -1.63477,0.74682 -1.63477,1.63477 l 0,10.46093 c 0,0.88795 0.74682,1.63282 1.63477,1.63282 l 15.58008,0 c 0.88794,0 1.63476,-0.74487 1.63476,-1.63282 l 0,-10.46093 c 0,-0.88795 -0.74682,-1.63477 -1.63476,-1.63477 l -15.58008,0 z m 0.36523,2 14.84961,0 0,9.72852 -14.84961,0 0,-9.72852 z m -24.05078,-2 c -0.88794,0 -1.63477,0.74682 -1.63477,1.63477 l 0,10.46093 c 0,0.88795 0.74683,1.63282 1.63477,1.63282 l 15.58008,0 c 0.88794,0 1.63476,-0.74487 1.63476,-1.63282 l 0,-10.46093 c 0,-0.88795 -0.74682,-1.63477 -1.63476,-1.63477 l -15.58008,0 z m 0.36523,2 14.84961,0 0,9.72852 -14.84961,0 0,-9.72852 z m -24.05273,-2 c -0.88794,0 -1.63281,0.74682 -1.63281,1.63477 l 0,10.46093 c 0,0.88795 0.74487,1.63282 1.63281,1.63282 l 15.58203,0 c 0.88795,0 1.63281,-0.74487 1.63281,-1.63282 l 0,-10.46093 c 0,-0.88795 -0.74486,-1.63477 -1.63281,-1.63477 l -15.58203,0 z m 0.36719,2 14.84765,0 0,9.72852 -14.84765,0 0,-9.72852 z m -24.05469,-2 c -0.88794,0 -1.63281,0.74682 -1.63281,1.63477 l 0,10.46093 c 0,0.88795 0.74487,1.63282 1.63281,1.63282 l 15.58203,0 c 0.88795,0 1.63281,-0.74487 1.63281,-1.63282 l 0,-10.46093 c 0,-0.88795 -0.74486,-1.63477 -1.63281,-1.63477 l -15.58203,0 z m 0.36719,2 14.84765,0 0,9.72852 -14.84765,0 0,-9.72852 z m 70.69336,-19.30273 c -0.88795,0 -1.63477,0.74682 -1.63477,1.63476 l 0,10.46094 c 0,0.88794 0.74682,1.63281 1.63477,1.63281 l 15.58008,0 c 0.88794,0 1.63476,-0.74487 1.63476,-1.63281 l 0,-10.46094 c 0,-0.88794 -0.74682,-1.63476 -1.63476,-1.63476 l -15.58008,0 z m 0.36523,2 14.84961,0 0,9.72851 -14.84961,0 0,-9.72851 z m -24.05078,-2 c -0.88794,0 -1.63477,0.74682 -1.63477,1.63476 l 0,10.46094 c 0,0.88794 0.74683,1.63281 1.63477,1.63281 l 15.58008,0 c 0.88794,0 1.63476,-0.74487 1.63476,-1.63281 l 0,-10.46094 c 0,-0.88794 -0.74682,-1.63476 -1.63476,-1.63476 l -15.58008,0 z m 0.36523,2 14.84961,0 0,9.72851 -14.84961,0 0,-9.72851 z m -24.05273,-2 c -0.88794,0 -1.63281,0.74682 -1.63281,1.63476 l 0,10.46094 c 0,0.88794 0.74487,1.63281 1.63281,1.63281 l 15.58203,0 c 0.88795,0 1.63281,-0.74487 1.63281,-1.63281 l 0,-10.46094 c 0,-0.88794 -0.74486,-1.63476 -1.63281,-1.63476 l -15.58203,0 z m 0.36719,2 14.84765,0 0,9.72851 -14.84765,0 0,-9.72851 z m -24.05469,-2 c -0.88794,0 -1.63281,0.74682 -1.63281,1.63476 l 0,10.46094 c 0,0.88794 0.74487,1.63281 1.63281,1.63281 l 15.58203,0 c 0.88795,0 1.63281,-0.74487 1.63281,-1.63281 l 0,-10.46094 c 0,-0.88794 -0.74486,-1.63476 -1.63281,-1.63476 l -15.58203,0 z m 0.36719,2 14.84765,0 0,9.72851 -14.84765,0 0,-9.72851 z M 192.02734,763 c -1.5082,0 -2.7539,1.2457 -2.7539,2.75391 l 0,28.93554 c 0,1.50821 1.2457,2.75391 2.7539,2.75391 l 84.375,0 c 1.50821,0 2.75391,-1.2457 2.75391,-2.75391 l 0,-28.93554 c 0,-1.50821 -1.2457,-2.75391 -2.75391,-2.75391 l -84.375,0 z m 0,2 84.375,0 c 0.4348,0 0.75391,0.31911 0.75391,0.75391 l 0,28.93554 c 0,0.4348 -0.31911,0.75391 -0.75391,0.75391 l -84.375,0 c -0.4348,0 -0.7539,-0.31911 -0.7539,-0.75391 l 0,-28.93554 c 0,-0.4348 0.3191,-0.75391 0.7539,-0.75391 z m -7.00586,-15.96484 c -4.59897,0 -8.33203,3.73305 -8.33203,8.33203 l 0,120.98828 c 0,4.59897 3.73306,8.33398 8.33203,8.33398 l 98.95704,0 c 4.59897,0 8.33203,-3.73501 8.33203,-8.33398 l 0,-120.98828 c 0,-4.59898 -3.73306,-8.33203 -8.33203,-8.33203 l -98.95704,0 z m 0,2 98.95704,0 c 3.52556,0 6.33203,2.80646 6.33203,6.33203 l 0,120.98828 c 0,3.52557 -2.80647,6.33398 -6.33203,6.33398 l -98.95704,0 c -3.52556,0 -6.33203,-2.80841 -6.33203,-6.33398 l 0,-120.98828 c 0,-3.52557 2.80647,-6.33203 6.33203,-6.33203 z" />
  </g>
</svg>
