<?xml version="1.0" encoding="UTF-8" standalone="no"?>
<!-- Created with Inkscape (http://www.inkscape.org/) -->

<svg
   xmlns:dc="http://purl.org/dc/elements/1.1/"
   xmlns:cc="http://creativecommons.org/ns#"
   xmlns:rdf="http://www.w3.org/1999/02/22-rdf-syntax-ns#"
   xmlns:svg="http://www.w3.org/2000/svg"
   xmlns="http://www.w3.org/2000/svg"
   xmlns:sodipodi="http://sodipodi.sourceforge.net/DTD/sodipodi-0.dtd"
   xmlns:inkscape="http://www.inkscape.org/namespaces/inkscape"
   width="469"
   height="469"
   viewBox="0 0 469 469.00001"
   id="svg5110"
   version="1.1"
   inkscape:version="0.91 r13725"
   sodipodi:docname="quotes.svg">
  <defs
     id="defs5112" />
  <sodipodi:namedview
     id="base"
     pagecolor="#ffffff"
     bordercolor="#666666"
     borderopacity="1.0"
     inkscape:pageopacity="0.0"
     inkscape:pageshadow="2"
     inkscape:zoom="1.979899"
     inkscape:cx="275"
     inkscape:cy="291.42857"
     inkscape:document-units="px"
     inkscape:current-layer="layer1"
     showgrid="false"
     units="px"
     inkscape:snap-bbox="true"
     inkscape:snap-bbox-midpoints="true"
     inkscape:window-width="1366"
     inkscape:window-height="746"
     inkscape:window-x="-8"
     inkscape:window-y="-8"
     inkscape:window-maximized="1" />
  <metadata
     id="metadata5115">
    <rdf:RDF>
      <cc:Work
         rdf:about="">
        <dc:format>image/svg+xml</dc:format>
        <dc:type
           rdf:resource="http://purl.org/dc/dcmitype/StillImage" />
        <dc:title />
      </cc:Work>
    </rdf:RDF>
  </metadata>
  <g
     inkscape:label="Livello 1"
     inkscape:groupmode="layer"
     id="layer1"
     transform="translate(0,-583.36216)">
    <path
       style="color:#000000;font-style:normal;font-variant:normal;font-weight:normal;font-stretch:normal;font-size:medium;line-height:normal;font-family:sans-serif;text-indent:0;text-align:start;text-decoration:none;text-decoration-line:none;text-decoration-style:solid;text-decoration-color:#000000;letter-spacing:normal;word-spacing:normal;text-transform:none;direction:ltr;block-progression:tb;writing-mode:lr-tb;baseline-shift:baseline;text-anchor:start;white-space:normal;clip-rule:nonzero;display:inline;overflow:visible;visibility:visible;opacity:1;isolation:auto;mix-blend-mode:normal;color-interpolation:sRGB;color-interpolation-filters:linearRGB;solid-color:#000000;solid-opacity:1;fill:#ff7260;fill-opacity:1;fill-rule:nonzero;stroke:none;stroke-width:1.99999988;stroke-linecap:butt;stroke-linejoin:miter;stroke-miterlimit:4;stroke-dasharray:none;stroke-dashoffset:0;stroke-opacity:1;color-rendering:auto;image-rendering:auto;shape-rendering:auto;text-rendering:auto;enable-background:accumulate"
       d="m 234.22266,753.98633 c -29.70627,-0.5431 -57.59682,22.19432 -63.07227,51.20312 -6.5e-4,0.003 -0.001,0.007 -0.002,0.01 -1.2e-4,6.2e-4 1.2e-4,0.001 0,0.002 -0.84221,4.19094 -1.24775,8.48337 -1.23242,12.75 l 0.002,0 c -0.015,4.26468 0.39089,8.53053 1.23242,12.71875 1.2e-4,6.3e-4 -1.2e-4,0.001 0,0.002 6.5e-4,0.003 0.001,0.007 0.002,0.01 5.47335,29.01355 33.35634,51.72046 63.04688,51.20313 l 0,0.004 c 0.0111,1.8e-4 0.0221,-0.002 0.0332,-0.002 10.01534,0.15252 19.9673,-2.38986 28.8457,-6.89258 11.20308,2.34334 22.40608,4.66081 33.60352,7.00391 l 1.54297,0.32226 -0.36523,-1.5332 c -2.50954,-10.55362 -5.02167,-21.10662 -7.53126,-31.63477 5.4187,-9.47859 8.25058,-20.32259 8.18165,-31.21093 l -0.0117,0 c 0.0153,-3.99574 -0.33803,-7.9682 -1.07422,-11.91211 l 0,-0.004 c -5.11743,-29.36495 -33.2189,-52.55026 -63.20117,-52.01758 l 0,-0.0215 z m -0.0195,1.0625 0.0176,0.95703 c 28.94027,-0.53414 56.29734,22.03715 61.23242,50.36719 l 0.002,0.006 0,0.006 c 0.7151,3.82697 1.05857,7.6802 1.04297,11.56054 l 0.91797,0.004 -0.9043,0.006 c 0.0676,10.67475 -2.72758,21.32996 -8.10352,30.58008 l -0.20117,0.3457 0.0937,0.38867 c 2.4155,10.13315 4.83227,20.29091 7.24805,30.44922 -10.79059,-2.25568 -21.5851,-4.49066 -32.375,-6.74805 l -0.34571,-0.0723 -0.3164,0.16211 c -8.70121,4.47635 -18.48831,6.98306 -28.28125,6.82812 l -0.0156,1.02735 -0.0195,-1.02735 c -28.66071,0.51618 -55.80481,-21.59385 -61.08008,-49.58984 l 0,-0.006 -0.002,-0.006 c -0.81624,-4.05831 -1.2102,-8.19713 -1.19531,-12.33594 l -1,-0.004 0.99805,-0.002 c -0.0149,-4.13881 0.37912,-8.30395 1.19531,-12.36133 l 0.002,-0.006 0,-0.006 c 5.27526,-27.98062 32.40947,-50.11192 61.07227,-49.58789 l 0.0176,-0.93555 z"
       id="path8"
       inkscape:connector-curvature="0" />
  </g>
</svg>
