<?xml version="1.0" encoding="UTF-8" standalone="no"?>
<!-- Created with Inkscape (http://www.inkscape.org/) -->

<svg
   xmlns:dc="http://purl.org/dc/elements/1.1/"
   xmlns:cc="http://creativecommons.org/ns#"
   xmlns:rdf="http://www.w3.org/1999/02/22-rdf-syntax-ns#"
   xmlns:svg="http://www.w3.org/2000/svg"
   xmlns="http://www.w3.org/2000/svg"
   xmlns:sodipodi="http://sodipodi.sourceforge.net/DTD/sodipodi-0.dtd"
   xmlns:inkscape="http://www.inkscape.org/namespaces/inkscape"
   width="469"
   height="469"
   viewBox="0 0 469 469.00001"
   id="svg5681"
   version="1.1"
   inkscape:version="0.91 r13725"
   sodipodi:docname="txt.svg">
  <defs
     id="defs5683" />
  <sodipodi:namedview
     id="base"
     pagecolor="#ffffff"
     bordercolor="#666666"
     borderopacity="1.0"
     inkscape:pageopacity="0.0"
     inkscape:pageshadow="2"
     inkscape:zoom="2.8"
     inkscape:cx="300"
     inkscape:cy="248.57143"
     inkscape:document-units="px"
     inkscape:current-layer="layer1"
     showgrid="false"
     units="px"
     inkscape:snap-global="true"
     inkscape:snap-bbox="true"
     inkscape:snap-bbox-midpoints="true"
     inkscape:window-width="1366"
     inkscape:window-height="746"
     inkscape:window-x="-8"
     inkscape:window-y="-8"
     inkscape:window-maximized="1" />
  <metadata
     id="metadata5686">
    <rdf:RDF>
      <cc:Work
         rdf:about="">
        <dc:format>image/svg+xml</dc:format>
        <dc:type
           rdf:resource="http://purl.org/dc/dcmitype/StillImage" />
        <dc:title />
      </cc:Work>
    </rdf:RDF>
  </metadata>
  <g
     inkscape:label="Livello 1"
     inkscape:groupmode="layer"
     id="layer1"
     transform="translate(0,-583.36216)">
    <path
       id="circle5667"
       style="fill:#a19c85;fill-opacity:1;stroke:none"
       d="m 307.99166,760.49567 a 0.86040807,0.85990512 0 0 1 -0.8604,0.8599 0.86040807,0.85990512 0 0 1 -0.86041,-0.8599 0.86040807,0.85990512 0 0 1 0.86041,-0.85991 0.86040807,0.85990512 0 0 1 0.8604,0.85991 z m -3.02877,0 a 0.86040807,0.85990512 0 0 1 -0.86041,0.8599 0.86040807,0.85990512 0 0 1 -0.86041,-0.8599 0.86040807,0.85990512 0 0 1 0.86041,-0.85991 0.86040807,0.85990512 0 0 1 0.86041,0.85991 z m -2.91657,0 a 0.86040807,0.85990512 0 0 1 -0.86041,0.8599 0.86040807,0.85990512 0 0 1 -0.8604,-0.8599 0.86040807,0.85990512 0 0 1 0.8604,-0.85991 0.86040807,0.85990512 0 0 1 0.86041,0.85991 z m -123.2846,95.47113 a 1.0000998,1.0000998 0 1 0 0,2 l 86.49023,0 a 1.0000998,1.0000998 0 1 0 0,-2 l -86.49023,0 z m 0.2168,-8.59961 a 1.0000999,1.0000999 0 1 0 0,2 l 115.39062,0 a 1.0000999,1.0000999 0 1 0 0,-2 l -115.39062,0 z m 0,-8.59961 a 1.0000999,1.0000999 0 1 0 0,2 l 115.39062,0 a 1.0000999,1.0000999 0 1 0 0,-2 l -115.39062,0 z m -0.22266,-17.19727 a 1.0000999,1.0000999 0 1 0 0,2 l 83.01367,0 a 1.0000999,1.0000999 0 1 0 0,-2 l -83.01367,0 z m 0.22266,-8.59961 a 1.0000999,1.0000999 0 1 0 0,2 l 115.39062,0 a 1.0000999,1.0000999 0 1 0 0,-2 l -115.39062,0 z m 6.26171,17.19922 a 1.0000999,1.0000999 0 1 0 0,2 l 109.17188,0 a 1.0000999,1.0000999 0 1 0 0,-2 l -109.17188,0 z m -6.26171,-25.79883 a 1.0000999,1.0000999 0 1 0 0,2 l 115.39062,0 a 1.0000999,1.0000999 0 1 0 0,-2 l -115.39062,0 z m 6.50586,-8.59765 a 1.0000999,1.0000999 0 1 0 0,2 l 30.3789,0 a 1.0000999,1.0000999 0 1 0 0,-2 l -30.3789,0 z m -20.57032,-39.47769 c -2.48621,0 -4.51758,2.03332 -4.51758,4.51953 l 0,106.95313 c 0,2.48621 2.03137,4.51953 4.51758,4.51953 l 143.34375,0 c 2.48621,0 4.51953,-2.03332 4.51953,-4.51953 l 0,-106.95313 c 0,-2.48621 -2.03332,-4.51953 -4.51953,-4.51953 l -121.46093,0 -21.88282,0 z m 0,2 21.88282,0 c 0.16695,0 0.70818,0.21843 1.33789,0.73633 0.6297,0.5179 1.34383,1.26355 2.05664,2.0293 0.71281,0.76574 1.4253,1.55053 2.125,2.18164 0.69969,0.63111 1.34698,1.2207 2.36328,1.2207 l 116.09765,0 0,15.28711 -148.38086,0 0,-18.93555 c 0,-1.41279 1.10478,-2.51953 2.51758,-2.51953 z m 25.3711,0 117.97265,0 c 1.41281,0 2.51953,1.10673 2.51953,2.51953 l 0,1.64844 -116.09765,0 c 0.0698,0 -0.4429,-0.18164 -1.02539,-0.70703 -0.5825,-0.52539 -1.27546,-1.28234 -1.99805,-2.05859 -0.44512,-0.47818 -0.90512,-0.95057 -1.37109,-1.40235 z m -27.88868,23.45508 148.38086,0 0,86.01758 c 0,1.4128 -1.10672,2.51953 -2.51953,2.51953 l -143.34375,0 c -1.4128,0 -2.51758,-1.10673 -2.51758,-2.51953 l 0,-86.01758 z" />
  </g>
</svg>
