<?xml version="1.0" encoding="UTF-8" standalone="no"?>
<!-- Created with Inkscape (http://www.inkscape.org/) -->

<svg
   xmlns:dc="http://purl.org/dc/elements/1.1/"
   xmlns:cc="http://creativecommons.org/ns#"
   xmlns:rdf="http://www.w3.org/1999/02/22-rdf-syntax-ns#"
   xmlns:svg="http://www.w3.org/2000/svg"
   xmlns="http://www.w3.org/2000/svg"
   xmlns:sodipodi="http://sodipodi.sourceforge.net/DTD/sodipodi-0.dtd"
   xmlns:inkscape="http://www.inkscape.org/namespaces/inkscape"
   width="469"
   height="469"
   viewBox="0 0 469 469.00001"
   id="svg5110"
   version="1.1"
   inkscape:version="0.91 r13725"
   sodipodi:docname="weatherapp.svg">
  <defs
     id="defs5112" />
  <sodipodi:namedview
     id="base"
     pagecolor="#ffffff"
     bordercolor="#666666"
     borderopacity="1.0"
     inkscape:pageopacity="0.0"
     inkscape:pageshadow="2"
     inkscape:zoom="0.95810203"
     inkscape:cx="194.11283"
     inkscape:cy="222.70268"
     inkscape:document-units="px"
     inkscape:current-layer="layer1"
     showgrid="false"
     units="px"
     inkscape:snap-bbox="true"
     inkscape:snap-bbox-midpoints="true"
     inkscape:window-width="1366"
     inkscape:window-height="746"
     inkscape:window-x="-8"
     inkscape:window-y="-8"
     inkscape:window-maximized="1"
     inkscape:object-paths="true"
     inkscape:object-nodes="true"
     inkscape:snap-global="false" />
  <metadata
     id="metadata5115">
    <rdf:RDF>
      <cc:Work
         rdf:about="">
        <dc:format>image/svg+xml</dc:format>
        <dc:type
           rdf:resource="http://purl.org/dc/dcmitype/StillImage" />
        <dc:title />
      </cc:Work>
    </rdf:RDF>
  </metadata>
  <g
     inkscape:label="Livello 1"
     inkscape:groupmode="layer"
     id="layer1"
     transform="translate(0,-583.36216)">
    <g
       id="g4198"
       transform="matrix(0.85688102,0,0,0.85645217,30.450027,116.40004)"
       style="stroke-width:2.33463062;stroke-miterlimit:4;stroke-dasharray:none">
      <path
         id="path4153"
         transform="translate(0,583.36216)"
         d="M 203.6875,147.53711 A 49.791908,49.763695 0 0 0 153.89648,197.30078 49.791908,49.763695 0 0 0 160.14648,221.32812 35.791405,35.771073 0 0 1 161.03906,221.2832 35.791405,35.771073 0 0 1 185.52344,231.02344 44.051392,44.026367 0 0 1 204.42578,226.7168 44.051392,44.026367 0 0 1 212.41211,227.48047 55.725861,55.694204 0 0 1 253.40039,195.07422 49.791908,49.763695 0 0 0 203.6875,147.53711 Z"
         style="opacity:1;fill:none;fill-opacity:1;stroke:#fee88a;stroke-width:2.33463062;stroke-linecap:round;stroke-linejoin:round;stroke-miterlimit:4;stroke-dasharray:none;stroke-dashoffset:0;stroke-opacity:0.92307693"
         inkscape:connector-curvature="0" />
      <path
         inkscape:connector-curvature="0"
         id="path4151"
         d="M 263.43023,777.47822 A 55.725861,55.694204 0 0 0 212.413,810.84224 44.051392,44.026367 0 0 0 204.42673,810.07965 44.051392,44.026367 0 0 0 185.52418,814.38572 35.791405,35.771073 0 0 0 161.03971,804.64495 35.791405,35.771073 0 0 0 125.24729,840.41703 35.791405,35.771073 0 0 0 161.03971,876.18744 35.791405,35.771073 0 0 0 166.15025,875.7858 44.051392,44.026367 0 0 0 204.42673,898.13129 44.051392,44.026367 0 0 0 237.95383,882.6457 55.725861,55.694204 0 0 0 263.43023,888.86671 55.725861,55.694204 0 0 0 295.16169,878.87682 31.713904,31.695888 0 0 0 317.34353,887.96008 31.713904,31.695888 0 0 0 349.05634,856.26528 31.713904,31.695888 0 0 0 318.45584,824.62471 55.725861,55.694204 0 0 0 263.43023,777.47822 Z"
         style="opacity:1;fill:none;fill-opacity:1;stroke:#abb198;stroke-width:2.33463062;stroke-linecap:round;stroke-linejoin:round;stroke-miterlimit:4;stroke-dasharray:none;stroke-dashoffset:0;stroke-opacity:1" />
    </g>
  </g>
</svg>
